HIERARCHY
ROOT Hips
{
	OFFSET -0.001795 -0.223333 0.028219
	CHANNELS 6 Xposition Yposition Zposition Zrotation Yrotation Xrotation 
	JOINT LeftUpLeg
	{
		OFFSET 0.069520 -0.091406 -0.006815
		CHANNELS 3 Zrotation Yrotation Xrotation
		JOINT LeftLeg
		{
			OFFSET 0.034277 -0.375199 -0.004496
			CHANNELS 3 Zrotation Yrotation Xrotation
			JOINT LeftFoot
			{
				OFFSET -0.013596 -0.397961 -0.043693
				CHANNELS 3 Zrotation Yrotation Xrotation
				JOINT LeftToe
				{
					OFFSET 0.026358 -0.055791 0.119288
					CHANNELS 3 Zrotation Yrotation Xrotation
					End Site
					{
						OFFSET 0.000000 0.000000 0.000000
					}
				}
			}
		}
	}
	JOINT RightUpLeg
	{
		OFFSET -0.067670 -0.090522 -0.004320
		CHANNELS 3 Zrotation Yrotation Xrotation
		JOINT RightLeg
		{
			OFFSET -0.038290 -0.382569 -0.008850
			CHANNELS 3 Zrotation Yrotation Xrotation
			JOINT RightFoot
			{
				OFFSET 0.015774 -0.398415 -0.042312
				CHANNELS 3 Zrotation Yrotation Xrotation
				JOINT RightToe
				{
					OFFSET -0.025372 -0.048144 0.123348
					CHANNELS 3 Zrotation Yrotation Xrotation
					End Site
					{
						OFFSET 0.000000 0.000000 0.000000
					}
				}
			}
		}
	}
	JOINT Spine
	{
		OFFSET -0.002533 0.108963 -0.026696
		CHANNELS 3 Zrotation Yrotation Xrotation
		JOINT Spine1
		{
			OFFSET 0.005487 0.135180 0.001092
			CHANNELS 3 Zrotation Yrotation Xrotation
			JOINT Spine2
			{
				OFFSET 0.001457 0.052922 0.025425
				CHANNELS 3 Zrotation Yrotation Xrotation
				JOINT Neck
				{
					OFFSET -0.002778 0.213870 -0.042857
					CHANNELS 3 Zrotation Yrotation Xrotation
					JOINT Head
					{
						OFFSET 0.005152 0.064970 0.051349
						CHANNELS 3 Zrotation Yrotation Xrotation
						End Site
						{
							OFFSET 0.000000 0.000000 0.000000
						}
					}
				}
				JOINT LeftShoulder
				{
					OFFSET 0.078845 0.121749 -0.034090
					CHANNELS 3 Zrotation Yrotation Xrotation
					JOINT LeftArm
					{
						OFFSET 0.090977 0.030469 -0.008868
						CHANNELS 3 Zrotation Yrotation Xrotation
						JOINT LeftForeArm
						{
							OFFSET 0.259612 -0.012772 -0.027456
							CHANNELS 3 Zrotation Yrotation Xrotation
							JOINT LeftHand
							{
								OFFSET 0.249234 0.008986 -0.001171
								CHANNELS 3 Zrotation Yrotation Xrotation
								End Site
								{
									OFFSET 0.000000 0.000000 0.000000
								}
							}
						}
					}
				}
				JOINT RightShoulder
				{
					OFFSET -0.081759 0.118833 -0.038615
					CHANNELS 3 Zrotation Yrotation Xrotation
					JOINT RightArm
					{
						OFFSET -0.096012 0.032551 -0.009143
						CHANNELS 3 Zrotation Yrotation Xrotation
						JOINT RightForeArm
						{
							OFFSET -0.253742 -0.013329 -0.021401
							CHANNELS 3 Zrotation Yrotation Xrotation
							JOINT RightHand
							{
								OFFSET -0.255298 0.007772 -0.005559
								CHANNELS 3 Zrotation Yrotation Xrotation
								End Site
								{
									OFFSET 0.000000 0.000000 0.000000
								}
							}
						}
					}
				}
			}
		}
	}
}
MOTION
Frames: 11
Frame Time: 0.050000
-0.752171 0.877007 -1.864801 0.545056 -5.943354 -10.479988 10.516800 0.457706 -18.355041 -7.196882 0.993236 2.219837 14.428572 27.196546 7.016307 0.000000 0.000000 0.000000 -2.003102 -0.290093 4.293531 -0.243726 2.750573 37.890462 -6.503956 -11.963083 -14.104308 0.000000 0.000000 0.000000 1.992554 -0.853556 19.274227 -3.612070 1.436849 -19.902367 1.185801 9.598831 26.616793 10.454101 -1.545119 -38.823493 0.000000 0.000000 0.000000 -12.999514 -7.472819 1.842185 -51.757693 4.010418 -10.081480 -14.361401 -15.825111 2.533468 0.000000 0.000000 0.000000 12.173816 5.706216 2.901896 50.795342 14.743795 -1.083489 12.428375 37.281184 6.326494 0.000000 0.000000 0.000000 
-0.764517 0.891632 -1.929769 0.758020 -6.204353 -10.167256 11.171014 0.610360 -18.899807 -10.400282 2.272352 13.390005 15.405029 29.693452 2.471569 0.000000 0.000000 0.000000 -0.796119 0.009950 0.076152 -0.678594 2.725232 35.334744 -5.526957 -9.292270 -12.141542 0.000000 0.000000 0.000000 1.172089 -0.729561 19.348767 -2.683198 1.146392 -19.660008 1.459869 8.447605 25.995155 10.590215 -1.846702 -38.419912 0.000000 0.000000 0.000000 -13.439503 -7.649995 2.131479 -52.381314 1.691745 -9.183505 -13.044501 -16.120529 2.430839 0.000000 0.000000 0.000000 11.111734 6.080361 2.793556 52.162521 13.522074 -1.471525 13.233339 37.648664 6.570039 0.000000 0.000000 0.000000 
-0.772309 0.910040 -1.989427 0.758889 -5.476539 -9.438819 11.430829 0.595934 -18.750346 -13.393593 4.602512 27.717006 14.492325 27.951245 3.084635 0.000000 0.000000 0.000000 -0.325582 0.294167 -3.017769 -0.718617 2.208078 30.804701 -4.532994 -8.173671 -7.929168 0.000000 0.000000 0.000000 1.088002 -0.725360 18.643288 -1.387553 0.790405 -20.637872 0.261993 7.044224 26.977368 11.148325 -2.268286 -38.628587 0.000000 0.000000 0.000000 -14.084715 -8.729176 2.846032 -52.081999 -1.988039 -7.705892 -12.511234 -17.161571 2.541009 0.000000 0.000000 0.000000 11.714215 5.576767 2.505300 53.394318 11.394110 -2.578575 16.424918 37.847633 7.699481 0.000000 0.000000 0.000000 
-0.776322 0.926072 -2.047189 0.807112 -4.907734 -8.441081 10.961501 0.396019 -16.007019 -14.988919 6.747348 38.667553 12.495724 24.512646 3.659175 0.000000 0.000000 0.000000 -0.536977 0.556343 -5.777094 -1.111732 1.965354 27.068439 -3.138955 -6.535001 -2.996719 0.000000 0.000000 0.000000 0.952340 -0.663890 16.545561 -1.474870 0.801213 -18.865465 -0.435440 5.256144 25.311579 12.176411 -3.072538 -37.334539 0.000000 0.000000 0.000000 -13.209456 -11.230425 4.237366 -52.146542 -6.252519 -5.727292 -12.662569 -20.846124 3.174968 0.000000 0.000000 0.000000 12.243222 4.322087 1.700293 53.656697 7.902659 -3.962324 21.092974 36.188679 8.673814 0.000000 0.000000 0.000000 
-0.776772 0.933806 -2.103932 -0.187491 -6.675466 -7.423377 11.293993 0.393792 -10.023112 -15.006502 8.404019 45.797612 9.133958 18.684076 3.248904 0.000000 0.000000 0.000000 0.347976 0.934617 -8.940617 -0.950708 1.638818 22.692907 -2.117783 -5.564487 0.606462 0.000000 0.000000 0.000000 2.730981 -0.798292 15.123025 -1.833500 0.869720 -19.242264 -1.508470 4.772890 25.051060 13.936612 -4.231812 -36.376724 0.000000 0.000000 0.000000 -11.622177 -13.474737 5.452487 -53.497545 -9.545553 -4.369249 -10.659593 -25.439827 3.551630 0.000000 0.000000 0.000000 13.897213 2.722834 0.696169 53.478956 5.036948 -5.218514 24.518210 33.084360 8.737716 0.000000 0.000000 0.000000 
-0.773657 0.932813 -2.161343 -0.962239 -8.375298 -7.522343 8.544397 0.233643 -0.800190 -11.760416 7.374085 48.250690 4.382948 10.328899 5.640405 0.000000 0.000000 0.000000 0.873174 1.337668 -11.964894 1.103699 0.845878 19.023974 -1.965326 -6.542996 3.451201 0.000000 0.000000 0.000000 4.345750 -0.908549 14.382292 -2.184322 0.926094 -18.621336 -2.523029 3.420981 24.920972 14.411033 -4.549460 -37.260265 0.000000 0.000000 0.000000 -8.978369 -15.824683 6.547027 -54.824678 -13.508422 -2.458650 -8.135150 -31.741913 3.950019 0.000000 0.000000 0.000000 15.224720 2.351418 0.031824 53.509242 2.029416 -6.498782 25.495349 30.069186 7.896715 0.000000 0.000000 0.000000 
-0.767904 0.926166 -2.224807 -1.877178 -8.673220 -6.174824 5.598653 0.494066 6.698214 -8.212825 4.417883 41.456569 0.927517 3.970683 5.970987 0.000000 0.000000 0.000000 1.458725 2.008507 -16.575446 3.409530 0.086146 15.227840 -3.947416 -11.892668 6.408279 0.000000 0.000000 0.000000 5.297076 -0.920562 12.795833 -1.805598 0.795754 -17.521708 -3.721129 -0.058307 23.500230 13.435033 -4.987812 -34.647792 0.000000 0.000000 0.000000 -4.935789 -15.859442 6.352971 -57.917979 -16.292281 -0.495822 -3.993219 -34.937081 3.393503 0.000000 0.000000 0.000000 15.394815 3.149505 -0.358179 53.572539 0.031707 -7.125997 23.119048 26.931169 6.057289 0.000000 0.000000 0.000000 
-0.760193 0.916364 -2.296768 -3.497339 -6.119546 -4.798879 3.860801 0.926334 12.811188 -2.660446 0.500826 27.484612 1.515155 2.075988 -3.327887 0.000000 0.000000 0.000000 1.870023 2.455356 -19.677401 4.325042 -0.311214 10.364450 -4.726895 -13.858602 8.800202 0.000000 0.000000 0.000000 6.454882 -1.126330 12.991816 -1.978005 0.911319 -17.312943 -4.018679 -3.680114 23.809018 13.434581 -4.715343 -37.243007 0.000000 0.000000 0.000000 -2.872532 -17.612139 6.788882 -55.775371 -19.963234 1.494353 2.664482 -37.808060 1.618692 0.000000 0.000000 0.000000 16.465493 2.558633 -1.205368 52.986586 -1.730062 -7.708510 22.181946 26.721613 5.624098 0.000000 0.000000 0.000000 
-0.753205 0.908977 -2.373320 -3.535842 -4.917062 -5.713170 3.206598 1.026571 13.702682 -2.507265 0.270872 21.724232 3.601835 5.356236 -8.162114 0.000000 0.000000 0.000000 -0.062394 2.411988 -22.050036 4.440975 -0.397040 7.098067 -5.608761 -15.777214 11.084436 0.000000 0.000000 0.000000 4.385780 -1.169568 16.555529 -1.338841 0.753340 -18.086769 -3.075872 -5.494264 24.363633 12.749812 -4.000345 -40.080582 0.000000 0.000000 0.000000 -1.809318 -17.998145 6.730017 -52.318268 -23.053575 2.766280 7.083152 -39.363470 0.246349 0.000000 0.000000 0.000000 15.868433 1.847516 -1.711677 54.402433 -1.451903 -7.884555 22.009197 25.395881 5.202399 0.000000 0.000000 0.000000 
-0.749239 0.904971 -2.444923 -3.828419 -4.313463 -6.657574 3.434763 0.688807 9.626948 -2.270095 0.155256 22.179088 4.530074 6.334121 -12.186904 0.000000 0.000000 0.000000 -1.893183 2.154095 -22.964380 5.561600 -0.588160 6.609523 -7.922496 -19.859805 11.841941 0.000000 0.000000 0.000000 3.030107 -1.203418 20.208695 -0.735357 0.586255 -18.057470 -2.228252 -4.381352 24.399372 11.808955 -3.422382 -40.249445 0.000000 0.000000 0.000000 -0.629030 -17.526259 6.205245 -51.569007 -24.892591 3.455672 11.050033 -40.193178 -1.190646 0.000000 0.000000 0.000000 14.217512 1.500149 -1.298549 57.566416 -2.118938 -8.871675 20.575523 26.529623 5.317998 0.000000 0.000000 0.000000 
-0.748837 0.913542 -2.506348 -3.575382 -5.135071 -7.162787 2.952417 0.559721 7.161774 -2.950001 0.400431 18.983860 5.936367 11.212243 -8.767470 0.000000 0.000000 0.000000 -2.650447 2.176103 -24.230778 6.415010 -0.746467 15.237032 -7.859810 -19.622143 8.400762 0.000000 0.000000 0.000000 1.590479 -0.967110 21.065425 -0.268889 0.430103 -18.615063 -1.388886 -3.470544 26.423037 10.245619 -2.705217 -41.262452 0.000000 0.000000 0.000000 -2.120328 -15.394769 5.705046 -50.333907 -24.429274 2.698149 12.126957 -39.340598 -1.471285 0.000000 0.000000 0.000000 13.286324 2.751677 -0.462829 59.938267 -0.367636 -8.712727 20.231650 27.041371 5.472163 0.000000 0.000000 0.000000 
